Coordinates
version=1
nRows=27
nColumns=26
inDegrees=yes

Units are S.I. units (second, meters, Newtons, ...)
If the header above contains a line with 'inDegrees', this indicates whether rotational values are in degrees (yes) or radians (no).

endheader
time	pelvis_tilt	pelvis_list	pelvis_rotation	pelvis_tx	pelvis_ty	pelvis_tz	hip_flexion_r	hip_adduction_r	hip_rotation_r	knee_angle_r	knee_angle_r_beta	ankle_angle_r	subtalar_angle_r	mtp_angle_r	hip_flexion_l	hip_adduction_l	hip_rotation_l	knee_angle_l	knee_angle_l_beta	ankle_angle_l	subtalar_angle_l	mtp_angle_l	lumbar_extension	lumbar_bending	lumbar_rotation
      2.29500000	      5.58502563	      4.45596194	     -1.21749750	      1.71123200	      1.02835209	      0.19339323	      9.12760966	     -4.50101626	      0.92532194	     62.98630279	      1.09931837	     -8.29560937	    -32.74023686	     -7.49999987	     -7.62062720	     10.61648909	     11.48531823	      3.17619447	      0.05543505	     -4.97874725	    -21.48457590	     -7.49999987	    -14.02856937	     -4.08666368	      1.50428131
      2.30000000	      5.57606633	      4.14799925	     -1.03784657	      1.71675981	      1.02874856	      0.19273967	      9.79211803	     -4.13291247	      0.72804416	     62.63302660	      1.09315253	     -7.57197436	    -32.63816679	     -7.49999987	     -8.05942686	     10.27378820	     11.53122575	      3.02568742	      0.05280821	     -4.63615365	    -21.17629973	     -7.49999987	    -14.07554542	     -3.68808808	      1.30712930
      2.30500000	      5.55111461	      3.83152192	     -0.88855491	      1.72226402	      1.02907829	      0.19218479	     10.46335356	     -3.72793873	      0.59328010	     62.22121487	      1.08596506	     -6.94665386	    -32.54379453	     -7.49999987	     -8.46095711	      9.92232134	     11.55200102	      2.90112522	      0.05063419	     -4.24782925	    -20.83522114	     -7.49999987	    -14.09140941	     -3.29602448	      1.18068130
      2.31000000	      5.56023288	      3.50679774	     -0.68903167	      1.72779052	      1.02943425	      0.19156176	     11.06383239	     -3.33896865	      0.38002324	     61.73032161	      1.07739736	     -6.32766834	    -32.42604359	     -7.49999987	     -8.90786074	      9.55320614	     11.62702520	      2.76332448	      0.04822911	     -3.88058853	    -20.50775627	     -7.49999987	    -14.15461973	     -2.88424591	      0.99598570
      2.31500000	      5.57801832	      3.17134110	     -0.50304546	      1.73333748	      1.02977568	      0.19098721	     11.63504852	     -2.92479199	      0.20026930	     61.16533905	      1.06753655	     -5.80663681	    -32.32580280	     -7.49999987	     -9.34301405	      9.17013575	     11.63991289	      2.66832942	      0.04657113	     -3.40290406	    -20.05814091	     -7.49999987	    -14.22282172	     -2.46778078	      0.84073574
      2.32000000	      5.59106985	      2.88439555	     -0.37800319	      1.73886234	      1.03002524	      0.19051295	     12.23099518	     -2.55318184	      0.09517603	     60.59445138	      1.05757269	     -5.26353189	    -32.13854291	     -7.49999987	     -9.76172099	      8.85431312	     11.58404763	      2.56911793	      0.04483957	     -3.16123185	    -19.87306870	     -7.49999987	    -14.28073865	     -2.11830164	      0.73118770
      2.32500000	      5.63145871	      2.54269626	     -0.14685936	      1.74444003	      1.03033874	      0.18993161	     12.71950183	     -2.14776125	     -0.14176454	     59.88502495	      1.04519086	     -4.78930062	    -32.02385035	     -7.49999987	    -10.23861136	      8.45367352	     11.72653784	      2.43348509	      0.04247233	     -2.78972994	    -19.57612523	     -7.49999987	    -14.37512119	     -1.70044932	      0.53340465
      2.33000000	      5.67026097	      2.23184499	      0.00698513	      1.74999379	      1.03057385	      0.18948090	     13.23288898	     -1.75475922	     -0.27683545	     59.17657612	      1.03282609	     -4.34418262	    -31.82870956	     -7.49999987	    -10.69303189	      8.09902530	     11.75160887	      2.32104598	      0.04050989	     -2.51010614	    -19.39420006	     -7.49999987	    -14.46664800	     -1.32754852	      0.40582402
      2.33500000	      5.72817779	      1.92072240	      0.20093829	      1.75557398	      1.03081194	      0.18895801	     13.68740672	     -1.38566464	     -0.47986872	     58.38122174	      1.01894454	     -3.94921878	    -31.68784348	     -7.49999987	    -11.14740426	      7.73675436	     11.74724623	      2.25553886	      0.03936658	     -2.04199601	    -18.98604323	     -7.49999987	    -14.57103270	     -0.94979150	      0.26968290
      2.34000000	      5.77203613	      1.62831091	      0.31537061	      1.76114196	      1.03097778	      0.18862654	     14.16743031	     -0.98381296	     -0.53405419	     57.56929500	      1.00477375	     -3.67521190	    -31.57013664	     -7.49999987	    -11.61707969	      7.40587149	     11.76338701	      2.10974841	      0.03682206	     -1.92194590	    -18.94922207	     -7.49999987	    -14.66830956	     -0.61791499	      0.18184839
      2.34500000	      5.82161785	      1.33121953	      0.50919493	      1.76673286	      1.03112645	      0.18815444	     14.58951187	     -0.62469109	     -0.70614109	     56.66428191	      0.98897829	     -3.35949570	    -31.46178832	     -7.49999987	    -12.04234392	      7.04659781	     11.70291180	      2.07312899	      0.03618293	     -1.45033110	    -18.49383353	     -7.49999987	    -14.76377169	     -0.26197863	      0.01673626
      2.35000000	      5.89073814	      1.04728370	      0.72130719	      1.77234644	      1.03127048	      0.18764410	     14.97288528	     -0.29421014	     -0.91495587	     55.71326014	      0.97237983	     -3.14566388	    -31.36725292	     -7.49999987	    -12.48073002	      6.69289548	     11.60055370	      2.06327679	      0.03601097	     -0.83495655	    -17.80079829	     -7.49999987	    -14.88399741	      0.08849975	     -0.17285778
      2.35500000	      5.96797363	      0.76747250	      0.85311589	      1.77793570	      1.03139304	      0.18732294	     15.33420993	      0.07004628	     -1.00088553	     54.71544554	      0.95496468	     -2.82691035	    -31.19141332	     -7.49999987	    -12.98622365	      6.36754208	     11.64727237	      1.90890961	      0.03331676	     -0.74144079	    -17.83955750	     -7.49999987	    -15.01269483	      0.40625241	     -0.26119590
      2.36000000	      6.04775479	      0.49975188	      1.03208221	      1.78354421	      1.03149150	      0.18692651	     15.66193656	      0.40324811	     -1.13786345	     53.65724104	      0.93649552	     -2.59763640	    -31.05429997	     -7.49999987	    -13.46242982	      6.03732983	     11.59718768	      1.83352289	      0.03200101	     -0.37990442	    -17.48873104	     -7.49999987	    -15.14331115	      0.71637038	     -0.38335338
      2.36500000	      6.10358536	      0.25849638	      1.16634454	      1.78915791	      1.03149634	      0.18660459	     16.01564438	      0.71499853	     -1.22040570	     52.58664405	      0.91781008	     -2.40929134	    -30.90295493	     -7.49999987	    -13.91908616	      5.74407501	     11.52350641	      1.73947617	      0.03035959	     -0.02933577	    -17.15276043	     -7.49999987	    -15.24504018	      0.99672053	     -0.51778103
      2.37000000	      6.19188231	      0.02158230	      1.30890794	      1.79475888	      1.03153675	      0.18629491	     16.29536328	      1.01720638	     -1.31084983	     51.44381624	      0.89786397	     -2.20598630	    -30.80920294	     -7.49999987	    -14.38797084	      5.44766402	     11.38667070	      1.68423480	      0.02939544	      0.30519442	    -16.75819348	     -7.49999987	    -15.39256646	      1.26307179	     -0.61966812
      2.37500000	      6.27040259	     -0.20842618	      1.48877323	      1.80036189	      1.03152330	      0.18592409	     16.56039533	      1.29709666	     -1.44415610	     50.25032213	      0.87703357	     -2.04346595	    -30.69348802	     -7.49999987	    -14.85668445	      5.15208911	     11.32641931	      1.61371458	      0.02816463	      0.67892397	    -16.38212830	     -7.49999987	    -15.52614215	      1.53030959	     -0.75195761
      2.38000000	      6.34410382	     -0.43526022	      1.66858793	      1.80598741	      1.03149974	      0.18558230	     16.79618093	      1.58025499	     -1.56186722	     48.98841646	      0.85500916	     -1.96254597	    -30.65897552	     -7.49999987	    -15.30294257	      4.84954934	     11.16228090	      1.57924302	      0.02756299	      1.16327301	    -15.74012601	     -7.49999987	    -15.65315258	      1.79659134	     -0.89010632
      2.38500000	      6.41141127	     -0.60524831	      1.77629276	      1.81159129	      1.03140235	      0.18534802	     17.04434069	      1.80242370	     -1.61657448	     47.74312955	      0.83327481	     -1.74565357	    -30.43625216	     -7.49999987	    -15.76150045	      4.62909330	     11.01292788	      1.49371308	      0.02607021	      1.38074226	    -15.44670252	     -7.49999987	    -15.78019518	      1.97700342	     -1.01042435
      2.39000000	      6.46739096	     -0.80063204	      1.92591155	      1.81719975	      1.03127247	      0.18509519	     17.25972274	      2.05419947	     -1.69613138	     46.41028923	      0.81001235	     -1.66656699	    -30.32934898	     -7.49999987	    -16.19114807	      4.36060984	     10.83965997	      1.45061008	      0.02531792	      1.81880061	    -14.87409154	     -7.49999987	    -15.88875804	      2.19105641	     -1.12358894
      2.39500000	      6.51865109	     -0.97024060	      2.07621674	      1.82280656	      1.03110194	      0.18481738	     17.46112479	      2.26551355	     -1.78172623	     45.05037755	      0.78627742	     -1.55245772	    -30.16690512	     -7.49999987	    -16.61643333	      4.12379209	     10.69698160	      1.40255321	      0.02447917	      2.16593380	    -14.41777136	     -7.49999987	    -15.99667578	      2.38133295	     -1.25289906
      2.40000000	      6.55159506	     -1.10846647	      2.19521012	      1.82840234	      1.03086163	      0.18462987	     17.67394263	      2.45488046	     -1.82954588	     43.67620705	      0.76229362	     -1.43963684	    -29.96006666	     -7.49999987	    -17.02044904	      3.92744326	     10.51202828	      1.35458669	      0.02364200	      2.47167552	    -13.96405662	     -7.49999987	    -16.08274507	      2.52219103	     -1.35906617
      2.40500000	      6.62773679	     -1.28034487	      2.34625480	      1.83401929	      1.03069574	      0.18438474	     17.78228464	      2.66192269	     -1.91537637	     42.21238892	      0.73674517	     -1.35267076	    -29.70265426	     -7.49999987	    -17.46791734	      3.68443653	     10.34953531	      1.31298789	      0.02291596	      2.84926742	    -13.49463786	     -7.49999987	    -16.22178932	      2.71311984	     -1.50380022
      2.41000000	      6.63010020	     -1.39908590	      2.45532741	      1.83964527	      1.03036011	      0.18422092	     17.96225800	      2.83728161	     -1.92267950	     40.73741562	      0.71100203	     -1.30446810	    -29.50943794	     -7.49999987	    -17.83302104	      3.50794719	     10.14999312	      1.28317074	      0.02239555	      3.14020074	    -12.99493329	     -7.49999987	    -16.27774455	      2.83108894	     -1.60981607
      2.41500000	      6.63485602	     -1.49870815	      2.56284616	      1.84525221	      1.02998858	      0.18409565	     18.12756984	      2.97491992	     -1.96011599	     39.25690076	      0.68516217	     -1.26766417	    -29.23826285	     -7.49999987	    -18.19605304	      3.35213663	      9.96650230	      1.25991013	      0.02198958	      3.41974217	    -12.56437992	     -7.49999987	    -16.34109226	      2.91688602	     -1.69275994
      2.42000000	      6.64481033	     -1.60408467	      2.68500928	      1.85088006	      1.02960769	      0.18394283	     18.25147848	      3.11718189	     -2.01676566	     37.71876639	      0.65831666	     -1.23184105	    -28.91806581	     -7.49999987	    -18.56452982	      3.18480047	      9.81578219	      1.23637690	      0.02157885	      3.71597257	    -12.12875710	     -7.49999987	    -16.40612793	      3.02203410	     -1.82600317
      2.42500000	      6.63087885	     -1.66351350	      2.72401472	      1.85652092	      1.02912910	      0.18394811	     18.40266457	      3.23440190	     -1.97279237	     36.20590895	      0.63191232	     -1.16645904	    -28.49791163	     -7.49999987	    -18.89994406	      3.08859276	      9.53071309	      1.23395756	      0.02153662	      4.01313789	    -11.63469564	     -7.49999987	    -16.45229396	      3.04742213	     -1.87189142
